<?xml version="1.0" standalone="no"?>
<!DOCTYPE svg PUBLIC "-//W3C//DTD SVG 20010904//EN"
 "http://www.w3.org/TR/2001/REC-SVG-20010904/DTD/svg10.dtd">
<svg version="1.0" xmlns="http://www.w3.org/2000/svg"
 width="450.000000pt" height="600.000000pt" viewBox="0 0 450.000000 600.000000"
 preserveAspectRatio="xMidYMid meet">

<g transform="translate(0.000000,600.000000) scale(0.100000,-0.100000)"
fill="#000000" stroke="none">
<path d="M420 5165 c0 -707 2 -835 14 -835 8 0 16 -7 19 -14 3 -8 20 -22 38
-31 53 -28 136 -106 150 -143 7 -19 5 -27 -13 -41 l-22 -18 37 -38 c34 -35 55
-84 43 -103 -3 -5 13 -14 35 -21 58 -17 77 -38 96 -104 8 -31 20 -60 24 -63 5
-3 9 -18 9 -35 0 -16 5 -29 10 -29 6 0 10 -8 10 -17 0 -10 7 -31 15 -47 8 -15
15 -38 15 -50 0 -11 9 -34 20 -51 11 -16 20 -43 20 -60 1 -16 7 -41 15 -55 8
-14 14 -50 15 -81 0 -50 3 -59 26 -74 34 -22 94 -148 94 -197 0 -21 11 -72 25
-115 14 -43 25 -96 24 -118 -1 -22 9 -80 20 -128 24 -95 22 -147 -6 -224 -10
-27 -14 -61 -11 -93 6 -55 3 -57 -39 -36 -15 8 -43 20 -60 27 -19 6 -33 18
-33 28 0 9 -12 33 -26 54 -15 23 -23 45 -19 56 3 11 1 22 -5 26 -6 3 -8 10 -5
14 7 12 -139 21 -347 21 l-188 0 0 -65 0 -65 -210 0 -210 0 0 -153 0 -153 227
1 c260 1 321 -9 477 -75 50 -22 123 -48 163 -59 70 -19 228 -84 247 -102 6 -5
16 -9 23 -9 13 0 68 -23 158 -66 61 -29 80 -31 66 -7 -13 25 13 71 45 79 40
10 135 -3 185 -25 24 -12 54 -21 65 -21 38 0 108 -38 159 -85 28 -25 62 -53
77 -61 78 -41 27 -146 -89 -180 -48 -14 -103 -59 -103 -84 0 -18 -56 -61 -92
-71 -21 -5 -38 -13 -38 -17 0 -9 -12 -10 -190 -19 -163 -9 -206 1 -232 54 -7
16 -23 29 -36 31 -12 2 -22 7 -22 11 0 8 -50 31 -115 53 -22 7 -49 21 -59 30
-11 10 -33 18 -48 18 -23 0 -31 6 -40 30 l-10 31 -24 -26 c-21 -23 -29 -25
-76 -20 -60 7 -110 29 -144 62 -13 13 -34 23 -47 23 -13 0 -47 12 -76 27 -54
26 -71 31 -148 40 -62 7 -71 25 -25 51 55 30 88 102 35 74 -13 -7 -34 -4 -73
9 -47 16 -61 17 -93 7 -32 -10 -43 -9 -67 5 -15 9 -40 17 -54 17 l-26 0 0
-105 c0 -80 4 -114 17 -138 9 -18 17 -43 17 -57 1 -15 10 -29 24 -36 13 -6 29
-17 35 -23 6 -6 18 -11 27 -11 9 0 25 -9 35 -20 20 -23 9 -44 -28 -56 -12 -3
-30 -16 -39 -28 -15 -18 -20 -19 -37 -8 -54 32 -51 63 -51 -613 l0 -625 545 0
c462 0 544 2 539 14 -7 19 5 25 60 30 61 6 107 45 136 114 14 33 40 68 68 93
46 40 120 79 151 79 26 0 83 31 127 68 59 49 113 82 134 82 11 0 28 8 38 18
57 56 72 62 161 63 47 0 111 5 141 10 132 24 138 24 146 -7 4 -15 2 -35 -5
-46 -6 -10 -17 -28 -23 -40 -7 -12 -33 -44 -58 -71 -60 -65 -67 -77 -46 -92
43 -32 -1 -134 -107 -247 -60 -65 -53 -69 140 -66 l168 3 -1 63 c-1 35 -6 68
-12 74 -14 14 -16 194 -3 202 5 3 11 22 13 41 4 31 1 35 -16 33 -25 -4 -50 42
-41 72 6 19 33 26 74 20 10 -1 10 3 -3 16 -9 9 -15 23 -12 31 3 7 1 22 -5 32
-9 13 -8 25 5 49 9 18 20 32 24 32 10 0 39 -20 29 -20 -5 0 0 -15 11 -32 11
-18 27 -58 37 -88 10 -30 21 -60 26 -66 11 -14 31 -131 35 -208 2 -33 8 -64
13 -69 7 -7 7 -16 0 -29 -5 -10 -9 -50 -7 -88 l3 -70 598 0 597 0 0 780 0 780
295 0 295 0 0 370 0 370 45 0 45 0 0 305 0 305 -25 16 c-19 13 -25 25 -25 55
0 21 -4 40 -9 43 -5 3 -18 26 -30 51 -12 25 -29 49 -39 52 -9 4 -21 11 -27 15
-95 75 -98 91 -27 167 44 47 82 66 82 41 0 -5 8 -10 18 -10 9 0 30 -11 46 -25
16 -14 31 -25 33 -25 1 0 3 248 3 550 l0 551 -335 -2 c-185 -1 -338 0 -340 3
-3 3 -7 131 -10 284 -6 367 -7 373 -45 404 -16 14 -30 32 -30 40 0 19 -70 53
-93 44 -9 -3 -17 -12 -17 -20 0 -8 -9 -14 -20 -14 -11 0 -20 -4 -20 -9 0 -16
-33 -17 -105 -4 -38 7 -94 13 -122 13 -48 0 -53 2 -53 23 0 12 14 38 30 57 17
19 37 49 45 65 9 17 26 48 39 70 12 22 35 63 51 90 15 28 40 67 54 89 14 21
33 50 41 65 27 48 64 96 92 119 16 13 28 29 28 36 0 16 23 66 31 66 4 0 14 11
23 25 l16 25 -1600 0 -1600 0 0 -835z m1390 781 c0 -8 -6 -17 -12 -19 -10 -4
-9 -8 2 -17 13 -9 12 -11 -5 -8 -23 4 -33 37 -13 49 19 13 28 11 28 -5z m444
-21 c3 -8 1 -15 -3 -15 -5 0 -16 -3 -25 -6 -12 -4 -16 0 -16 15 0 25 35 30 44
6z m172 -132 c28 -24 44 -45 44 -60 0 -12 5 -25 11 -29 15 -9 4 -101 -16 -140
-8 -16 -15 -37 -15 -46 0 -24 -79 -88 -109 -88 -40 0 -48 25 -49 150 0 106 1
116 24 143 16 20 24 41 24 68 0 33 3 39 21 39 11 0 40 -17 65 -37z m-641 -211
c6 -63 13 -110 18 -106 4 4 7 -15 7 -43 0 -29 6 -55 13 -61 8 -7 11 -28 9 -56
-4 -51 -22 -64 -22 -16 0 27 -3 30 -34 30 -47 0 -72 -10 -54 -21 11 -7 11 -12
0 -30 -12 -19 -11 -26 4 -55 10 -19 22 -34 26 -34 14 0 9 -77 -5 -89 -19 -15
-64 34 -78 82 -8 30 -18 40 -59 59 -51 24 -57 35 -44 86 6 19 13 22 55 22 36
0 49 4 49 14 0 8 -4 18 -10 21 -5 3 -10 33 -10 65 0 47 -5 67 -25 96 -18 27
-25 50 -25 85 0 45 2 49 28 55 15 3 32 7 37 9 6 2 33 3 60 2 l50 -2 10 -113z
m-1175 -208 c0 -2 -7 -4 -15 -4 -8 0 -15 4 -15 10 0 5 7 7 15 4 8 -4 15 -8 15
-10z m1220 -145 c0 -5 -4 -9 -10 -9 -5 0 -10 7 -10 16 0 8 5 12 10 9 6 -3 10
-10 10 -16z m1345 -260 c-4 -6 8 -25 27 -42 59 -55 83 -131 54 -169 -20 -27
-39 -22 -73 17 -17 19 -38 35 -47 35 -13 0 -16 12 -17 58 -1 31 -1 63 0 70 1
6 -4 12 -11 12 -8 1 -5 6 6 15 23 17 71 21 61 4z m-1205 -165 c0 -27 -34 -100
-62 -132 -16 -18 -26 -37 -23 -43 7 -11 -1 -11 -44 -3 -36 8 -41 33 -11 52 12
7 18 17 15 22 -3 6 -1 10 4 10 6 0 14 18 17 40 4 21 14 46 23 54 30 27 81 27
81 0z m-160 -227 c0 -25 -7 -39 -30 -55 -16 -13 -30 -29 -30 -37 0 -8 -4 -15
-10 -15 -5 0 -10 7 -10 16 0 13 -3 14 -15 4 -8 -7 -12 -16 -9 -21 3 -5 -1 -9
-9 -9 -20 0 -10 54 14 76 10 9 19 25 19 36 0 11 7 18 19 18 11 0 23 5 26 10
14 23 35 9 35 -23z m1280 -64 l-1 -58 -93 -68 c-51 -37 -127 -84 -167 -103
-41 -20 -76 -39 -79 -44 -6 -9 -31 -13 -74 -11 l-29 1 6 60 c3 34 12 72 21 85
9 13 16 29 16 35 0 18 35 50 60 55 13 2 44 27 70 55 l46 50 112 0 112 0 0 -57z
m-511 -1817 c7 -8 38 -15 76 -18 40 -2 71 -10 82 -20 10 -9 34 -18 53 -20 l35
-3 0 -57 c0 -31 2 -58 5 -60 58 -49 148 -64 172 -29 8 10 31 29 52 42 32 18
39 20 47 8 5 -8 7 -26 5 -40 -3 -17 1 -31 13 -41 13 -11 19 -31 19 -64 1 -45
-2 -53 -36 -85 -36 -34 -74 -61 -118 -85 -15 -8 -37 -9 -74 -2 -42 8 -67 22
-137 79 -47 38 -91 69 -99 69 -7 0 -18 16 -23 36 -13 46 -39 67 -59 48 -7 -8
-24 -14 -37 -14 -39 0 -63 35 -70 105 -8 76 -12 82 -50 87 -24 2 -31 8 -33 31
-3 21 2 29 20 36 37 15 144 13 157 -3z m-1450 -450 c6 -8 25 -19 41 -26 17 -7
30 -18 30 -25 0 -7 7 -18 15 -25 12 -10 13 -16 4 -27 -9 -11 -8 -17 7 -28 15
-11 16 -15 4 -16 -35 -4 -55 -4 -60 2 -3 3 -39 8 -80 11 -41 2 -63 3 -47 1 39
-6 23 -23 -22 -23 -35 0 -39 3 -44 30 -4 17 -4 44 0 60 4 25 10 30 34 30 16 0
29 3 29 8 0 9 51 41 66 42 6 0 17 -6 23 -14z m245 -262 c11 -30 6 -34 -44 -34
-27 0 -50 3 -50 8 1 34 82 57 94 26z m632 -69 c-3 -8 6 -28 19 -44 14 -16 25
-34 25 -40 0 -6 5 -11 10 -11 15 0 12 -26 -5 -40 -8 -7 -15 -18 -14 -24 6 -51
-10 -58 -46 -20 -22 24 -25 36 -25 110 0 79 1 84 21 84 15 0 19 -5 15 -15z
m-1662 -401 c3 -8 2 -12 -4 -9 -6 3 -10 10 -10 16 0 14 7 11 14 -7z m161 -74
c3 -5 -3 -10 -14 -10 -12 0 -21 5 -21 10 0 6 6 10 14 10 8 0 18 -4 21 -10z
m-375 -91 c0 -4 -7 -6 -15 -3 -8 4 -15 10 -15 15 0 4 7 6 15 3 8 -4 15 -10 15
-15z m50 -34 c0 -8 4 -15 8 -15 5 0 19 -9 32 -20 22 -19 23 -20 2 -20 -31 0
-52 11 -52 26 0 8 -4 14 -10 14 -5 0 -10 7 -10 15 0 8 7 15 15 15 8 0 15 -7
15 -15z m810 -60 c34 -18 37 -31 14 -63 -11 -16 -24 -22 -42 -20 -23 3 -27 7
-26 36 2 35 10 62 19 62 3 0 19 -7 35 -15z"/>
<path d="M433 2583 c9 -2 23 -2 30 0 6 3 -1 5 -18 5 -16 0 -22 -2 -12 -5z"/>
<path d="M400 1799 c-15 -26 -7 -34 19 -19 15 7 27 8 40 0 25 -13 41 -13 41 0
0 6 -9 10 -21 10 -11 0 -27 7 -35 15 -21 20 -31 19 -44 -6z"/>
</g>
</svg>
