<?xml version="1.0" encoding="UTF-8"?>
<svg width="41px" height="41px" viewBox="0 0 41 41" version="1.1" xmlns="http://www.w3.org/2000/svg" xmlns:xlink="http://www.w3.org/1999/xlink">
    <!-- Generator: Sketch 49 (51002) - http://www.bohemiancoding.com/sketch -->
    <title>icon/instagram</title>
    <desc>Created with Sketch.</desc>
    <defs>
        <path d="M17.0641221,23.7326733 C17.0641221,20.0491059 20.0494442,17.0621675 23.7330116,17.0621675 C27.416579,17.0621675 30.4035173,20.0491059 30.4035173,23.7326733 C30.4035173,27.4162407 27.416579,30.403179 23.7330116,30.403179 C20.0494442,30.403179 17.0641221,27.4162407 17.0641221,23.7326733 M13.4581375,23.7326733 C13.4581375,29.4075329 18.0581519,34.0075473 23.7330116,34.0075473 C29.4078712,34.0075473 34.0078856,29.4075329 34.0078856,23.7326733 C34.0078856,18.0578136 29.4078712,13.4577992 23.7330116,13.4577992 C18.0581519,13.4577992 13.4581375,18.0578136 13.4581375,23.7326733 M32.0133607,13.0504895 C32.0133607,14.3758625 33.088206,15.4523241 34.4151954,15.4523241 C35.7405685,15.4523241 36.81703,14.3758625 36.81703,13.0504895 C36.81703,11.7251164 35.7421848,10.6502711 34.4151954,10.6502711 C33.088206,10.6502711 32.0133607,11.7251164 32.0133607,13.0504895 M15.6482357,40.0202155 C13.6973512,39.9313185 12.6370527,39.6064404 11.9323422,39.331668 C10.9981158,38.9679985 10.3321966,38.5348278 9.63071866,37.8349662 C8.93085702,37.1351045 8.49606999,36.4691854 8.13401686,35.534959 C7.85924439,34.8302484 7.53436635,33.7699499 7.44546938,31.8190654 C7.34849086,29.7097826 7.32909516,29.0761896 7.32909516,23.7326733 C7.32909516,18.3891569 7.35010717,17.7571802 7.44546938,15.6462811 C7.53436635,13.6953966 7.8608607,12.6367144 8.13401686,11.9303876 C8.4976863,10.9961612 8.93085702,10.330242 9.63071866,9.62876406 C10.3305803,8.92890241 10.9964995,8.49411539 11.9323422,8.13206225 C12.6370527,7.85728978 13.6973512,7.53241175 15.6482357,7.44351477 C17.7575185,7.34653625 18.3911115,7.32714055 23.7330116,7.32714055 C29.0765279,7.32714055 29.7085046,7.34815256 31.8194037,7.44351477 C33.7702882,7.53241175 34.8289704,7.85890609 35.5352973,8.13206225 C36.4695237,8.49411539 37.1354428,8.92890241 37.8369208,9.62876406 C38.5367824,10.3286257 38.9699531,10.9961612 39.3336226,11.9303876 C39.608395,12.6350981 39.9332731,13.6953966 40.0221701,15.6462811 C40.1191486,17.7571802 40.1385443,18.3891569 40.1385443,23.7326733 C40.1385443,29.0745733 40.1191486,29.7081663 40.0221701,31.8190654 C39.9332731,33.7699499 39.6067787,34.8302484 39.3336226,35.534959 C38.9699531,36.4691854 38.5367824,37.1351045 37.8369208,37.8349662 C37.1370591,38.5348278 36.4695237,38.9679985 35.5352973,39.331668 C34.8305867,39.6064404 33.7702882,39.9313185 31.8194037,40.0202155 C29.7101209,40.117194 29.0765279,40.1365897 23.7330116,40.1365897 C18.3911115,40.1365897 17.7575185,40.117194 15.6482357,40.0202155 M15.4833723,3.84399543 C13.3530775,3.94097394 11.8983997,4.27878245 10.6263648,4.77337289 C9.31068955,5.28412643 8.19543659,5.96944129 7.08179993,7.08146164 C5.96977959,8.19348198 5.28446472,9.30873494 4.77371119,10.6260265 C4.27912075,11.8980614 3.94131224,13.3527392 3.84433372,15.483034 C3.7457389,17.6165614 3.72311057,18.2986436 3.72311057,23.7326733 C3.72311057,29.1667029 3.7457389,29.8487852 3.84433372,31.9823126 C3.94131224,34.1126074 4.27912075,35.5672851 4.77371119,36.83932 C5.28446472,38.1549953 5.96816328,39.2718646 7.08179993,40.3838849 C8.19382028,41.4959052 9.30907324,42.1796038 10.6263648,42.6919736 C11.900016,43.1865641 13.3530775,43.5243726 15.4833723,43.6213511 C17.618516,43.7183296 18.2989819,43.7425743 23.7330116,43.7425743 C29.1686575,43.7425743 29.8491235,43.7199459 31.9826509,43.6213511 C34.1129457,43.5243726 35.5676234,43.1865641 36.8396583,42.6919736 C38.1553336,42.1796038 39.2705865,41.4959052 40.3842232,40.3838849 C41.4962435,39.2718646 42.1799421,38.1549953 42.6923119,36.83932 C43.1869024,35.5672851 43.5263272,34.1126074 43.6216894,31.9823126 C43.7186679,29.8471689 43.7412962,29.1667029 43.7412962,23.7326733 C43.7412962,18.2986436 43.7186679,17.6165614 43.6216894,15.483034 C43.5247109,13.3527392 43.1869024,11.8980614 42.6923119,10.6260265 C42.1799421,9.31035125 41.4962435,8.19509829 40.3842232,7.08146164 C39.2722029,5.96944129 38.1553336,5.28412643 36.8412747,4.77337289 C35.5676234,4.27878245 34.1129457,3.93935764 31.9842672,3.84399543 C29.8507398,3.74701691 29.1686575,3.72277228 23.7346279,3.72277228 C18.2989819,3.72277228 17.618516,3.7454006 15.4833723,3.84399543" id="path-1"></path>
    </defs>
    <g id="Page-1" stroke="none" stroke-width="1" fill="none" fill-rule="evenodd">
        <g id="Homepage---Design-1" transform="translate(-696.000000, -7537.000000)">
            <g id="Instagram" transform="translate(693.000000, 7524.000000)">
                <g id="Group-4">
                    <g id="icon/play-copy" transform="translate(0.000000, 10.000000)">
                        <mask id="mask-2" fill="white">
                            <use xlink:href="#path-1"></use>
                        </mask>
                        <use id="Shape" fill="#000000" fill-rule="nonzero" xlink:href="#path-1"></use>
                        <g id="color/white" mask="url(#mask-2)" fill="#FFFFFF" fill-rule="evenodd">
                            <rect id="Rectangle-3" x="0" y="0" width="47" height="47"></rect>
                        </g>
                    </g>
                </g>
            </g>
        </g>
    </g>
</svg>