<?xml version="1.0" encoding="UTF-8"?>
<svg width="41px" height="41px" viewBox="0 0 41 41" version="1.1" xmlns="http://www.w3.org/2000/svg" xmlns:xlink="http://www.w3.org/1999/xlink">
    <!-- Generator: Sketch 48.2 (47327) - http://www.bohemiancoding.com/sketch -->
    <title>icon/music player</title>
    <desc>Created with Sketch.</desc>
    <defs>
        <path d="M23.2277228,3.1886076 C12.1708713,3.1886076 3.18811881,12.1712505 3.18811881,23.2279672 C3.18811881,34.2846838 12.1708713,43.2673267 23.2277228,43.2673267 C34.2845743,43.2673267 43.2673267,34.2846838 43.2673267,23.2279672 C43.2673267,13.4592348 36.2648515,5.30913619 26.9992673,3.54430623 C26.7519741,3.46958675 26.4851149,3.50160873 26.2627208,3.63503899 C26.0421166,3.76846924 25.8873335,3.98907071 25.8392976,4.24346127 C25.789481,4.49786549 25.8517495,4.75938369 26.0065327,4.96574355 C26.1630921,5.17211252 26.3997097,5.30198578 26.6576832,5.32333681 C35.0779604,6.92803407 41.4455446,14.3287517 41.4455446,23.2275937 C41.4455446,33.2987382 33.2989901,41.4451933 23.2277228,41.4451933 C13.1564554,41.4451933 5.00990099,33.2987382 5.00990099,23.2275937 C5.00990099,13.1564492 13.1564554,5.0099941 23.2277228,5.0099941 C23.471459,5.01355108 23.706305,4.91926134 23.8806495,4.74847135 C24.0532224,4.57590058 24.1510703,4.34284738 24.1510703,4.09910501 C24.1510703,3.85536264 24.0532224,3.62230488 23.8806495,3.44973867 C23.7063004,3.27894867 23.471459,3.18465893 23.2277228,3.18821592 L23.2277228,3.1886076 Z M33.1333594,12.3037744 C33.0995566,12.3073307 33.0675347,12.3108869 33.0337319,12.3180041 L17.5487837,15.9608161 C17.1360415,16.0604242 16.8460403,16.4321959 16.8514145,16.8573121 L16.8514145,27.9137018 C16.2020486,27.7465013 15.4922004,27.7571748 14.7592158,27.9848505 C13.8394554,28.2694452 13.0317332,28.7941467 12.4250876,29.4505359 C11.8184419,30.1069251 11.3861386,30.9108482 11.3861386,31.8126718 C11.3861386,32.7144954 11.9483333,33.5362683 12.7097373,33.890213 C13.4711414,34.2441577 14.38029,34.2317266 15.3000504,33.947132 C16.2198108,33.6625373 17.027533,33.1378357 17.6341786,32.4814466 C18.2408242,31.8250574 18.6731275,31.0211343 18.6731275,30.1193107 L18.6731275,22.1224276 L29.8031618,19.5041565 C30.2586015,19.3903187 30.5521323,18.9491741 30.4827689,18.4849433 C30.4133872,18.0207124 30.0006405,17.6863023 29.5327673,17.71121 C29.4847321,17.7165467 29.4366969,17.7272202 29.3904424,17.7396695 L18.6734919,20.2583097 L18.6734919,17.5689127 L32.3366815,14.3672452 L32.3366815,24.2711403 C31.6873157,24.1021639 30.9792436,24.1146132 30.2444828,24.342289 C29.3247225,24.6268837 28.5170002,25.1515852 27.9103546,25.8079744 C27.303709,26.4643636 26.8714057,27.2682866 26.8714057,28.1701103 C26.8714057,29.0719339 27.4336004,29.8937068 28.1950044,30.2476515 C28.9564084,30.6015962 29.8655571,30.5891651 30.7853174,30.3045704 C31.7050778,30.0199757 32.5128,29.4952742 33.1194457,28.838885 C33.7260913,28.1824958 34.1583946,27.3785728 34.1583946,26.4767491 L34.1583946,13.2146367 C34.1601754,12.9513889 34.0498724,12.7005904 33.8523938,12.5262819 C33.6566959,12.3519688 33.3934017,12.2719271 33.1336645,12.3039428 L33.1333594,12.3037744 Z M31.5253536,25.960396 C31.7352853,25.960396 31.9042956,25.9835771 32.0235168,26.0317241 C32.260133,26.1262331 32.3117255,26.1904306 32.3366337,26.3883642 L32.3366337,26.4739578 C32.3366337,26.7396541 32.1640619,27.1854577 31.7815401,27.6009634 C31.3990183,28.0164692 30.8333084,28.3891552 30.244421,28.5710246 C29.6555336,28.7528939 29.1912098,28.7047652 28.9634884,28.5995558 C28.7357671,28.4943464 28.6930693,28.437284 28.6930693,28.1715877 C28.6930693,27.9058913 28.8656411,27.4600877 29.2481629,27.044582 C29.6306846,26.6290763 30.1963946,26.2563902 30.785282,26.0745209 C31.0628196,25.9889272 31.3154628,25.960396 31.5253764,25.960396 L31.5253536,25.960396 Z M16.0402051,29.6039604 C16.2501368,29.6039604 16.4191471,29.6289263 16.5383683,29.6752884 C16.7767652,29.7697975 16.826577,29.8357753 16.8514851,30.0319285 L16.8514851,30.1175222 C16.8514851,30.3832185 16.6789134,30.8290221 16.2963916,31.2445278 C15.9138698,31.6600335 15.3481599,32.0327196 14.7592725,32.214589 C14.1703851,32.3964583 13.7060612,32.3483296 13.4783399,32.2431202 C13.2506185,32.1379108 13.2079208,32.0808483 13.2079208,31.815152 C13.2079208,31.5494557 13.3804926,31.1036521 13.7630144,30.6881464 C14.1455361,30.2726407 14.711246,29.8999546 15.3001335,29.7180852 C15.5776711,29.6324916 15.8303143,29.6039604 16.0402278,29.6039604 L16.0402051,29.6039604 Z" id="path-1"></path>
    </defs>
    <g id="Elements/Top-Header" stroke="none" stroke-width="1" fill="none" fill-rule="evenodd" transform="translate(-1441.000000, -12.000000)">
        <g id="icon/music-player" transform="translate(1438.000000, 9.000000)">
            <mask id="mask-2" fill="white">
                <use xlink:href="#path-1"></use>
            </mask>
            <use id="Page-1" fill="#000000" fill-rule="evenodd" xlink:href="#path-1"></use>
            <g id="color/magenta" mask="url(#mask-2)" fill="#FF52A6" fill-rule="evenodd">
                <rect id="Rectangle-3" x="0" y="0" width="46" height="46"></rect>
            </g>
        </g>
    </g>
</svg>