<?xml version="1.0" encoding="UTF-8"?>
<svg width="348px" height="40px" viewBox="0 0 348 40" version="1.1" xmlns="http://www.w3.org/2000/svg" xmlns:xlink="http://www.w3.org/1999/xlink">
    <!-- Generator: Sketch 47 (45396) - http://www.bohemiancoding.com/sketch -->
    <title>Combined Shape Copy</title>
    <desc>Created with Sketch.</desc>
    <defs></defs>
    <g id="Symbols" stroke="none" stroke-width="1" fill="none" fill-rule="evenodd">
        <g id="Page-Element/Venue-Preview" transform="translate(0.000000, -305.000000)" fill="#FFFFFF">
            <path d="M0.0309463087,314.838805 C0.878408054,314.531746 1.50037047,314.111877 2.28582282,313.769132 C7.41251678,311.531616 11.6675758,308.922465 17.8603409,307.137367 C22.2094067,305.883773 26.867702,305.048348 32.0881691,305.003119 C38.1142913,304.951093 42.7493477,306.175276 46.2970792,308.232008 C49.0705691,309.839982 51.7160698,311.495276 54.6977758,313.028086 C57.2311691,314.33057 60.2860953,315.376714 64.3983342,315.699851 C71.5921248,316.26508 77.0846859,315.116191 81.3964993,312.684426 C84.1743101,311.11789 87.0056054,309.56874 89.7433611,307.989394 C94.2605879,305.38338 102.252326,304.191746 109.517585,305.599197 C114.115156,306.489786 116.982185,308.213315 119.845711,309.914753 C121.756325,311.049786 123.628752,312.202204 125.710095,313.277629 C130.755044,315.884295 139.842282,316.765211 146.870364,314.735668 C149.96336,313.842596 152.235636,312.638152 154.392185,311.363903 C157.081361,309.775145 159.653992,308.153577 162.989303,306.776583 C167.490882,304.918282 175.130416,304.479459 180.56377,305.709524 C185.263639,306.773577 188.21942,308.58155 191.159903,310.396191 C193.779596,312.012923 196.4634,313.595145 200.33309,314.737367 C207.326722,316.80142 217.170217,315.800112 221.826644,313.054361 C225.106603,311.120374 228.485823,309.206518 232.142158,307.405211 C239.514737,303.773446 251.383522,304.48691 257.461844,307.989655 C260.201468,309.568478 263.033698,311.117367 265.808706,312.684688 C267.964438,313.902335 270.510093,314.975276 273.907063,315.426779 C281.691052,316.461158 287.241769,315.635407 292.231248,313.148348 C295.349702,311.594099 297.988663,309.861943 300.925643,308.237498 C303.279314,306.935929 305.969424,305.803511 309.824867,305.343903 C317.058479,304.48142 323.372577,305.440635 329.327464,307.149263 C336.80491,309.294753 341.66675,312.567694 347.989723,315.210701 L347.989723,344.998021 L0,344.998021 L0.0309463087,314.838805 Z" id="Combined-Shape-Copy"></path>
        </g>
    </g>
</svg>