<?xml version="1.0" encoding="utf-8"?>
<!-- Generator: Adobe Illustrator 16.0.0, SVG Export Plug-In . SVG Version: 6.00 Build 0)  -->
<!DOCTYPE svg PUBLIC "-//W3C//DTD SVG 1.1//EN" "http://www.w3.org/Graphics/SVG/1.1/DTD/svg11.dtd">
<svg version="1.1" id="Layer_1" xmlns="http://www.w3.org/2000/svg" xmlns:xlink="http://www.w3.org/1999/xlink" x="0px" y="0px"
	 width="710.712px" height="40px" viewBox="0 0 710.712 40" enable-background="new 0 0 710.712 40" xml:space="preserve">
<title>Combined Shape Copy</title>
<desc>Created with Sketch.</desc>
<g id="Symbols">
	<g id="Page-Element_x2F_Venue-Preview" transform="translate(0.000000, -305.000000)">
		<path id="Combined-Shape-Copy" fill="#FFFFFF" d="M0.031,315.209c0.848-0.307,1.47-0.727,2.255-1.07
			c5.127-2.237,9.382-4.847,15.575-6.632c4.349-1.253,9.007-2.089,14.228-2.134c6.026-0.052,10.661,1.172,14.208,3.229
			c2.774,1.608,5.419,3.263,8.401,4.796c2.533,1.302,5.588,2.349,9.701,2.671c7.194,0.565,12.686-0.583,16.998-3.015
			c2.778-1.566,5.609-3.116,8.347-4.695c4.518-2.606,12.509-3.797,19.774-2.39c4.598,0.891,7.465,2.614,10.328,4.316
			c1.911,1.135,3.783,2.287,5.864,3.362c5.045,2.607,14.132,3.488,21.16,1.458c3.093-0.893,5.366-2.098,7.522-3.372
			c2.689-1.588,5.262-3.21,8.597-4.587c4.501-1.858,12.142-2.297,17.575-1.067c4.699,1.064,7.654,2.872,10.596,4.687
			c2.619,1.617,5.303,3.199,9.173,4.341c6.993,2.064,16.837,1.063,21.493-1.683c3.28-1.934,6.66-3.848,10.316-5.649
			c7.372-3.632,19.24-2.918,25.319,0.584c2.739,1.579,5.571,3.127,8.347,4.695c2.156,1.218,4.701,2.291,8.099,2.742
			c7.784,1.034,13.335,0.208,18.324-2.278c3.118-1.554,5.757-3.287,8.694-4.911c2.354-1.301,5.043-2.434,8.899-2.894
			c7.233-0.862,13.548,0.097,19.502,1.806c7.478,2.146,12.34,5.418,18.662,8.062v29.787H0L0.031,315.209z"/>
	</g>
</g>
<g id="Symbols_1_">
	<g id="Page-Element_x2F_Venue-Preview_1_" transform="translate(0.000000, -305.000000)">
		<path id="Combined-Shape-Copy_1_" fill="#FFFFFF" d="M563.071,345.368H215.082v-29.787c6.322-2.643,11.185-5.916,18.662-8.062
			c5.954-1.709,12.269-2.668,19.502-1.806c3.856,0.46,6.546,1.592,8.899,2.894c2.938,1.625,5.576,3.357,8.694,4.911
			c4.989,2.487,10.54,3.313,18.324,2.278c3.397-0.452,5.942-1.524,8.099-2.742c2.775-1.567,5.607-3.116,8.347-4.695
			c6.079-3.503,17.947-4.216,25.319-0.584c3.656,1.801,7.036,3.715,10.316,5.649c4.656,2.746,14.5,3.747,21.493,1.683
			c3.87-1.142,6.554-2.725,9.173-4.341c2.941-1.814,5.896-3.623,10.596-4.687c5.434-1.23,13.074-0.791,17.575,1.067
			c3.335,1.377,5.907,2.999,8.597,4.587c2.156,1.274,4.43,2.479,7.522,3.372c7.028,2.029,16.115,1.148,21.16-1.458
			c2.081-1.075,3.954-2.228,5.864-3.362c2.863-1.702,5.73-3.425,10.328-4.316c7.266-1.407,15.257-0.216,19.774,2.39
			c2.737,1.58,5.569,3.129,8.347,4.695c4.313,2.432,9.805,3.581,16.998,3.015c4.112-0.323,7.168-1.369,9.701-2.671
			c2.98-1.533,5.627-3.188,8.4-4.796c3.547-2.057,8.183-3.281,14.209-3.229c5.221,0.045,9.879,0.881,14.228,2.134
			c6.192,1.785,10.448,4.395,15.575,6.632c0.785,0.343,1.406,0.763,2.254,1.07L563.071,345.368z"/>
	</g>
</g>
<g id="Symbols_2_">
	<g id="Page-Element_x2F_Venue-Preview_2_" transform="translate(0.000000, -305.000000)">
		<path id="Combined-Shape-Copy_2_" fill="#FFFFFF" d="M362.754,315.209c0.848-0.307,1.469-0.727,2.254-1.07
			c5.127-2.237,9.383-4.847,15.575-6.632c4.349-1.253,9.007-2.089,14.228-2.134c6.026-0.052,10.662,1.172,14.209,3.229
			c2.773,1.608,5.42,3.263,8.4,4.796c2.533,1.302,5.589,2.349,9.701,2.671c7.193,0.566,12.686-0.583,16.998-3.015
			c2.777-1.566,5.609-3.116,8.347-4.695c4.518-2.606,12.509-3.797,19.774-2.39c4.598,0.891,7.465,2.614,10.328,4.316
			c1.91,1.135,3.783,2.287,5.864,3.362c5.045,2.607,14.132,3.488,21.16,1.458c3.093-0.893,5.366-2.098,7.522-3.372
			c2.689-1.588,5.262-3.21,8.597-4.587c4.501-1.858,12.142-2.297,17.575-1.067c4.699,1.064,7.654,2.872,10.596,4.687
			c2.619,1.617,5.303,3.199,9.173,4.341c6.993,2.063,16.837,1.063,21.493-1.683c3.28-1.934,6.66-3.848,10.316-5.649
			c7.372-3.632,19.24-2.918,25.319,0.584c2.739,1.579,5.571,3.127,8.347,4.695c2.156,1.218,4.701,2.291,8.099,2.742
			c7.784,1.034,13.335,0.208,18.324-2.278c3.118-1.554,5.757-3.287,8.694-4.911c2.354-1.301,5.043-2.434,8.899-2.894
			c7.233-0.862,13.548,0.097,19.502,1.806c7.478,2.146,12.34,5.418,18.662,8.062v29.787H362.723L362.754,315.209z"/>
	</g>
</g>
</svg>
